<svg width="23700" height="15051" viewBox="0 0 23700 15051" fill="none" xmlns="http://www.w3.org/2000/svg">
<g filter="url(#filter0_dddddd_103_7)">
<path d="M9728.11 5695.29C9728.11 5874.33 9703.7 6059.88 9654.87 6251.93C9606.04 6442.36 9536.87 6632.79 9447.35 6823.22C9359.46 7012.02 9252.85 7198.39 9127.53 7382.3C9003.83 7564.6 8866.3 7737.94 8714.93 7902.32C8565.19 8065.08 8403.24 8215.64 8229.09 8353.98C8056.56 8492.33 7877.53 8611.15 7691.98 8710.43C7506.43 8811.34 7316 8889.47 7120.69 8944.8C6925.38 9001.77 6730.88 9030.25 6537.2 9030.25C6491.62 9030.25 6446.05 9029.44 6400.48 9027.81C6356.53 9026.18 6315.84 9023.74 6278.41 9020.49C6239.34 9018.86 6205.16 9016.42 6175.87 9013.16C6146.57 9011.54 6125.41 9009.1 6112.39 9005.84C6086.35 9000.96 6066.82 8987.94 6053.8 8966.78C6040.78 8945.62 6036.71 8923.65 6041.59 8900.86C6051.36 8863.42 6070.89 8839.82 6100.18 8830.06C6127.85 8820.29 6157.15 8815.41 6188.07 8815.41C6212.49 8818.67 6249.92 8821.92 6300.38 8825.18C6349.21 8828.43 6407.8 8831.69 6476.16 8834.94C6599.86 8541.97 6719.49 8254.7 6835.05 7973.12C6950.61 7691.55 7060.47 7423.81 7164.64 7169.9C7268.8 6914.37 7365.65 6676.74 7455.16 6457.01C7546.31 6237.29 7627.69 6041.97 7699.3 5871.07C7772.55 5700.18 7835.21 5558.57 7887.29 5446.27C7939.38 5332.34 7979.25 5255.03 8006.92 5214.34C8016.69 5201.32 8037.03 5188.29 8067.96 5175.27C8098.88 5162.25 8133.06 5150.86 8170.5 5141.09C8209.56 5131.33 8248.62 5124 8287.68 5119.12C8328.37 5112.61 8363.37 5109.36 8392.66 5109.36C8395.92 5109.36 8403.24 5110.17 8414.64 5111.8C8426.03 5111.8 8437.42 5113.42 8448.82 5116.68C8461.84 5119.93 8473.23 5124 8483 5128.89C8492.76 5133.77 8497.64 5141.09 8497.64 5150.86C8497.64 5163.88 8491.13 5185.04 8478.11 5214.34C8466.72 5242.01 8451.26 5276.18 8431.73 5316.88C8413.82 5357.57 8392.66 5403.95 8368.25 5456.04C8345.46 5506.49 8321.86 5559.39 8297.45 5614.73C8186.77 5870.26 8077.72 6125.79 7970.3 6381.33C7864.51 6636.86 7758.71 6895.65 7652.92 7157.7C7548.75 7418.11 7446.21 7682.6 7345.3 7951.15C7244.39 8219.71 7145.11 8493.96 7047.45 8773.91C7246.02 8715.31 7436.45 8622.54 7618.74 8495.59C7801.03 8367.01 7971.11 8215.64 8128.99 8041.48C8286.87 7865.7 8429.29 7672.83 8556.24 7462.87C8684.82 7252.91 8794.68 7037.25 8885.83 6815.9C8976.97 6594.54 9046.96 6373.19 9095.79 6151.84C9146.24 5928.85 9171.47 5718.08 9171.47 5519.51C9171.47 5312.81 9120.2 5153.3 9017.66 5041C8915.12 4927.06 8759.69 4870.1 8551.36 4870.1C8346.28 4870.1 8159.1 4905.09 7989.83 4975.08C7820.56 5043.44 7674.89 5139.47 7552.82 5263.16C7432.38 5386.86 7338.79 5534.97 7272.06 5707.5C7205.33 5880.03 7171.96 6068.83 7171.96 6273.91C7171.96 6306.46 7168.71 6334.13 7162.2 6356.91C7155.68 6379.7 7138.6 6391.09 7110.93 6391.09C7065.35 6391.09 7022.22 6382.96 6981.53 6366.68C6942.47 6350.4 6907.48 6326.8 6876.55 6295.88C6847.25 6264.95 6823.65 6228.33 6805.75 6186.02C6789.47 6142.07 6781.34 6093.24 6781.34 6039.53C6781.34 5917.46 6807.38 5799.46 6859.46 5685.53C6911.54 5569.97 6983.16 5462.55 7074.3 5363.26C7165.45 5262.35 7272.06 5170.39 7394.13 5087.38C7516.2 5004.38 7646.41 4932.76 7784.75 4872.54C7924.73 4812.32 8068.77 4765.93 8216.88 4733.38C8366.62 4700.83 8514.73 4684.55 8661.22 4684.55C8804.45 4684.55 8940.35 4704.08 9068.93 4743.14C9199.14 4782.21 9313.07 4843.24 9410.73 4926.25C9508.39 5007.63 9585.7 5112.61 9642.66 5241.19C9699.63 5368.14 9728.11 5519.51 9728.11 5695.29ZM11407.8 7709.45C11350.8 7838.03 11290.6 7956.04 11227.1 8063.46C11163.7 8169.25 11096.9 8260.4 11026.9 8336.89C10958.6 8411.76 10887.8 8470.36 10814.5 8512.68C10742.9 8554.99 10669.7 8576.15 10594.8 8576.15C10539.5 8576.15 10491.5 8563.95 10450.8 8539.53C10411.7 8515.12 10379.2 8482.57 10353.1 8441.88C10327.1 8399.56 10307.5 8350.73 10294.5 8295.39C10283.1 8238.42 10277.4 8178.2 10277.4 8114.73C10277.4 8026.84 10288.8 7937.32 10311.6 7846.17C10336 7755.03 10366.9 7664.69 10404.4 7575.18C10443.4 7485.66 10487.4 7397.77 10536.2 7311.5C10585 7223.61 10635.5 7138.16 10687.6 7055.16C10622.5 7107.24 10551.7 7166.65 10475.2 7233.38C10398.7 7300.11 10323 7369.28 10248.1 7440.9C10174.9 7510.89 10106.5 7580.06 10043.1 7648.42C9981.21 7716.78 9931.56 7777 9894.13 7829.08C9820.89 7926.74 9759.85 8017.88 9711.02 8102.52C9663.82 8185.53 9622.32 8257.96 9586.51 8319.8C9550.7 8380.03 9518.97 8428.04 9491.3 8463.85C9462 8498.03 9431.08 8515.12 9398.52 8515.12C9375.74 8515.12 9353.76 8509.42 9332.61 8498.03C9309.82 8485.01 9298.43 8460.59 9298.43 8424.79C9298.43 8372.7 9316.33 8292.14 9352.14 8183.09C9387.94 8074.04 9440.03 7943.01 9508.39 7790.02C9542.57 7711.89 9581.63 7620.75 9625.57 7516.58C9669.52 7412.42 9717.53 7298.48 9769.62 7174.79C9823.33 7051.09 9881.11 6920.88 9942.96 6784.16C10006.4 6647.44 10073.2 6507.47 10143.2 6364.24C10211.5 6222.64 10283.9 6082.66 10360.4 5944.32C10438.6 5805.97 10512.6 5677.39 10582.6 5558.57C10654.2 5438.13 10719.3 5332.34 10777.9 5241.19C10836.5 5148.42 10882.1 5077.62 10914.6 5028.79C10943.9 4986.47 10970 4952.29 10992.8 4926.25C11017.2 4898.58 11040.8 4884.75 11063.6 4884.75C11078.2 4884.75 11092.9 4896.14 11107.5 4918.93C11122.2 4941.71 11135.2 4970.2 11146.6 5004.38C11158 5036.93 11166.9 5071.11 11173.4 5106.91C11179.9 5142.72 11183.2 5173.65 11183.2 5199.69C11183.2 5207.83 11182.4 5224.92 11180.8 5250.96C11179.1 5275.37 11172.6 5307.92 11161.2 5348.61C11149.8 5389.3 11131.9 5436.5 11107.5 5490.21C11083.1 5542.3 11048.1 5599.26 11002.5 5661.11C10968.3 5709.94 10926 5770.98 10875.6 5844.22C10826.7 5917.46 10774.7 5998.84 10719.3 6088.36C10664 6176.25 10607 6269.02 10548.4 6366.68C10491.5 6464.34 10436.1 6560.36 10382.4 6654.77C10343.3 6724.75 10301 6801.25 10255.5 6884.26C10211.5 6967.27 10165.9 7051.9 10118.7 7138.16C10073.2 7222.8 10027.6 7307.43 9982.02 7392.07C9938.07 7476.71 9896.57 7555.64 9857.51 7628.89C9932.38 7531.23 10003.2 7444.97 10069.9 7370.1C10138.3 7293.6 10198.5 7229.31 10250.6 7177.23C10310.8 7115.38 10366.9 7061.67 10419 7016.09C10591.6 6863.1 10728.3 6749.17 10829.2 6674.3C10930.1 6597.8 11006.6 6559.55 11058.7 6559.55C11078.2 6559.55 11100.2 6566.06 11124.6 6579.08C11149 6592.1 11171 6610.01 11190.5 6632.79C11211.7 6653.95 11228.8 6679.18 11241.8 6708.48C11256.4 6737.77 11263.8 6767.88 11263.8 6798.81C11263.8 6839.5 11248.3 6887.51 11217.4 6942.85C11186.4 6996.56 11147.4 7059.23 11100.2 7130.84C11054.6 7200.83 11005.8 7278.95 10953.7 7365.21C10901.6 7451.48 10853.6 7546.69 10809.7 7650.86C10764.1 7756.65 10728.3 7860.01 10702.2 7960.92C10676.2 8060.2 10663.2 8144.84 10663.2 8214.82C10663.2 8262.02 10669.7 8303.53 10682.7 8339.34C10697.4 8373.52 10721 8390.61 10753.5 8390.61C10787.7 8390.61 10828.4 8372.7 10875.6 8336.89C10922.8 8301.09 10972.4 8251.45 11024.5 8187.97C11078.2 8124.49 11131.9 8049.62 11185.6 7963.36C11239.3 7875.47 11289 7779.44 11334.6 7675.27C11347.6 7649.23 11362.2 7636.21 11378.5 7636.21C11388.3 7636.21 11397.2 7639.47 11405.4 7645.98C11413.5 7652.49 11417.6 7662.25 11417.6 7675.27C11417.6 7678.53 11416.8 7684.23 11415.1 7692.36C11413.5 7698.87 11411.1 7704.57 11407.8 7709.45ZM12726.2 7709.45C12703.4 7753.4 12674.1 7804.67 12638.3 7863.26C12602.5 7920.23 12561.8 7979.64 12516.2 8041.48C12470.6 8101.71 12421 8161.93 12367.3 8222.15C12315.2 8282.37 12260.7 8336.08 12203.7 8383.28C12148.4 8428.85 12091.4 8466.29 12032.8 8495.59C11975.8 8524.88 11920.5 8539.53 11866.8 8539.53C11832.6 8539.53 11798.4 8534.65 11764.2 8524.88C11731.7 8515.12 11701.6 8500.47 11673.9 8480.94C11647.9 8459.78 11626.7 8433.74 11610.4 8402.81C11594.2 8371.89 11586 8334.45 11586 8290.51C11586 8230.29 11597.4 8166.81 11620.2 8100.08C11644.6 8031.72 11674.7 7963.36 11710.5 7895C11748 7825.01 11787 7756.65 11827.7 7689.92C11870 7623.19 11909.1 7559.71 11944.9 7499.49C11982.3 7437.64 12012.5 7381.49 12035.2 7331.04C12059.7 7280.58 12071.9 7236.63 12071.9 7199.2C12071.9 7184.55 12062.9 7173.16 12045 7165.02C12028.7 7155.25 12005.9 7150.37 11976.6 7150.37C11962 7150.37 11942.5 7152.81 11918.1 7157.7C11895.3 7162.58 11869.2 7168.27 11839.9 7174.79C11810.6 7181.3 11778.9 7188.62 11744.7 7196.76C11712.2 7203.27 11679.6 7208.96 11647.1 7213.85C11596.6 7335.92 11546.1 7449.85 11495.7 7555.64C11445.2 7661.44 11402.1 7744.45 11366.3 7804.67C11353.3 7827.45 11342.7 7843.73 11334.6 7853.5C11324.8 7861.63 11313.4 7865.7 11300.4 7865.7C11277.6 7865.7 11266.2 7855.12 11266.2 7833.96C11266.2 7825.83 11267.8 7816.88 11271.1 7807.11C11272.7 7795.72 11276 7785.14 11280.8 7775.37C11328 7687.48 11372.8 7597.96 11415.1 7506.82C11459.1 7414.04 11501.4 7320.46 11542.1 7226.05C11504.6 7226.05 11477.8 7218.73 11461.5 7204.08C11445.2 7187.81 11437.1 7163.39 11437.1 7130.84C11437.1 7096.66 11445.2 7054.34 11461.5 7003.89C11479.4 6951.8 11501.4 6898.09 11527.4 6842.75C11553.5 6785.79 11582.8 6729.64 11615.3 6674.3C11647.9 6617.33 11680.4 6566.88 11713 6522.93C11745.5 6477.36 11774.8 6440.74 11800.9 6413.07C11828.5 6383.77 11850.5 6369.12 11866.8 6369.12C11879.8 6369.12 11892.8 6374 11905.8 6383.77C11918.9 6393.54 11925.4 6407.37 11925.4 6425.27C11925.4 6449.69 11918.1 6487.94 11903.4 6540.02C11888.8 6592.1 11870 6652.32 11847.3 6720.68C11915.6 6710.92 11975 6703.59 12025.5 6698.71C12077.6 6692.2 12117.4 6688.95 12145.1 6688.95C12211.8 6688.95 12267.2 6701.97 12311.1 6728.01C12355.1 6752.42 12377 6784.97 12377 6825.66C12377 6850.08 12368.1 6887.51 12350.2 6937.97C12332.3 6986.8 12310.3 7043.76 12284.3 7108.87C12258.2 7173.97 12229.7 7244.77 12198.8 7321.27C12167.9 7396.14 12139.4 7472.64 12113.4 7550.76C12087.3 7627.26 12065.4 7702.13 12047.4 7775.37C12029.5 7848.61 12020.6 7915.35 12020.6 7975.57C12020.6 8022.77 12029.5 8062.64 12047.4 8095.2C12067 8127.75 12096.3 8144.02 12135.3 8144.02C12164.6 8144.02 12197.2 8137.51 12233 8124.49C12270.4 8109.84 12311.1 8085.43 12355.1 8051.25C12399 8015.44 12445.4 7967.43 12494.2 7907.21C12544.7 7845.36 12596.8 7768.05 12650.5 7675.27C12663.5 7649.23 12679 7636.21 12696.9 7636.21C12706.6 7636.21 12715.6 7639.47 12723.7 7645.98C12731.9 7652.49 12735.9 7662.25 12735.9 7675.27C12735.9 7685.04 12732.7 7696.43 12726.2 7709.45ZM14444.9 7709.45C14402.6 7807.11 14353 7905.58 14296 8004.86C14240.6 8102.52 14178.8 8190.41 14110.4 8268.54C14042.1 8346.66 13968 8410.95 13888.3 8461.41C13808.5 8510.23 13723.9 8534.65 13634.4 8534.65C13567.6 8534.65 13513.9 8524.07 13473.2 8502.91C13434.2 8480.12 13404.1 8452.45 13382.9 8419.9C13361.7 8387.35 13347.1 8351.54 13339 8312.48C13332.4 8271.79 13329.2 8234.36 13329.2 8200.18C13329.2 8162.74 13334.1 8119.61 13343.8 8070.78C13355.2 8020.33 13373.9 7964.99 13400 7904.77C13343 7973.12 13285.2 8039.04 13226.6 8102.52C13168.1 8164.37 13110.3 8219.71 13053.3 8268.54C12998 8317.36 12944.3 8356.43 12892.2 8385.72C12840.1 8415.02 12792.9 8429.67 12750.6 8429.67C12724.5 8429.67 12697.7 8423.16 12670 8410.14C12642.3 8395.49 12617.9 8373.52 12596.8 8344.22C12574 8314.92 12555.3 8277.49 12540.6 8231.91C12526 8186.34 12518.6 8132.63 12518.6 8070.78C12518.6 7989.4 12534.1 7898.26 12565 7797.34C12596 7696.43 12635.8 7594.71 12684.7 7492.17C12731.9 7388 12783.9 7287.09 12840.9 7189.43C12899.5 7090.15 12955.7 7001.45 13009.4 6923.32C13063.1 6845.2 13110.3 6780.9 13151 6730.45C13193.3 6679.99 13222.6 6651.51 13238.9 6645C13242.1 6643.37 13250.2 6641.74 13263.3 6640.12C13276.3 6638.49 13292.6 6638.49 13312.1 6640.12C13331.6 6640.12 13352.8 6643.37 13375.6 6649.88C13400 6656.39 13424.4 6667.79 13448.8 6684.06C13470 6700.34 13484.6 6712.55 13492.8 6720.68C13500.9 6728.82 13506.6 6736.96 13509.9 6745.1C13518 6759.75 13520.4 6771.95 13517.2 6781.72C13515.5 6791.48 13513.1 6799.62 13509.9 6806.13C13505 6815.9 13487.1 6841.94 13456.1 6884.26C13426.8 6926.58 13390.2 6979.47 13346.3 7042.95C13304 7106.43 13258.4 7178.04 13209.6 7257.79C13162.4 7335.92 13117.6 7415.67 13075.3 7497.05C13034.6 7578.43 13000.4 7659 12972.7 7738.75C12946.7 7816.88 12933.7 7887.68 12933.7 7951.15C12933.7 7983.7 12939.4 8006.49 12950.8 8019.51C12962.2 8032.53 12976.8 8039.04 12994.7 8039.04C13035.4 8039.04 13081.8 8021.14 13133.9 7985.33C13187.6 7947.9 13242.9 7899.07 13299.9 7838.85C13356.9 7777 13413.8 7707.01 13470.8 7628.89C13527.8 7549.13 13582.3 7466.13 13634.4 7379.86C13784.1 7124.33 13898 6938.78 13976.2 6823.22C14054.3 6707.66 14102.3 6649.88 14120.2 6649.88C14126.7 6649.88 14138.9 6655.58 14156.8 6666.97C14176.4 6676.74 14196.7 6688.95 14217.9 6703.59C14239 6716.61 14257.7 6729.64 14274 6742.66C14290.3 6754.05 14298.4 6761.37 14298.4 6764.63C14298.4 6784.16 14287.8 6811.83 14266.7 6847.64C14247.2 6881.82 14217.9 6932.27 14178.8 6999C14139.7 7064.11 14091.7 7148.74 14034.8 7252.91C13979.4 7355.45 13915.9 7484.84 13844.3 7641.09C13823.2 7688.29 13802 7736.31 13780.8 7785.14C13759.7 7833.96 13741 7881.98 13724.7 7929.18C13708.4 7974.75 13694.6 8018.7 13683.2 8061.02C13673.4 8103.33 13668.5 8141.58 13668.5 8175.76C13668.5 8232.73 13680.8 8273.42 13705.2 8297.83C13731.2 8322.25 13758.1 8334.45 13785.7 8334.45C13846 8334.45 13902.1 8314.92 13954.2 8275.86C14007.9 8235.17 14058.4 8183.9 14105.6 8122.05C14154.4 8058.57 14200.8 7987.77 14244.7 7909.65C14288.7 7831.52 14330.2 7753.4 14369.2 7675.27C14382.2 7649.23 14397.7 7636.21 14415.6 7636.21C14425.4 7636.21 14434.3 7639.47 14442.5 7645.98C14450.6 7652.49 14454.7 7662.25 14454.7 7675.27C14454.7 7680.16 14453.9 7685.04 14452.2 7689.92C14450.6 7694.8 14448.2 7701.32 14444.9 7709.45ZM15687.6 6969.71C15687.6 6989.24 15683.5 7029.11 15675.4 7089.34C15668.9 7147.93 15656.7 7217.92 15638.8 7299.3C15622.5 7379.05 15598.9 7466.13 15568 7560.53C15537 7654.93 15498.8 7747.7 15453.2 7838.85C15381.6 7980.45 15310.8 8100.08 15240.8 8197.73C15170.8 8293.76 15104.1 8371.89 15040.6 8432.11C14977.1 8492.33 14917.7 8535.46 14862.4 8561.5C14807.1 8587.55 14759 8600.57 14718.3 8600.57C14658.1 8600.57 14606 8585.1 14562.1 8554.18C14518.2 8524.88 14481.5 8482.57 14452.2 8427.23C14422.9 8370.26 14401 8301.9 14386.3 8222.15C14371.7 8142.4 14364.3 8053.69 14364.3 7956.04C14364.3 7869.77 14370 7779.44 14381.4 7685.04C14392.8 7590.64 14409.9 7492.17 14432.7 7389.63C14455.5 7293.6 14484 7201.64 14518.2 7113.75C14554 7024.23 14589 6944.48 14623.1 6874.49C14658.9 6802.88 14691.5 6743.47 14720.8 6696.27C14750.1 6647.44 14769.6 6615.7 14779.4 6601.05C14794 6578.27 14807.9 6558.74 14820.9 6542.46C14833.9 6524.56 14849.4 6515.61 14867.3 6515.61C14881.9 6515.61 14901.5 6531.88 14925.9 6564.43C14951.9 6595.36 14978 6631.17 15004 6671.86C15030 6710.92 15052 6749.98 15069.9 6789.04C15089.4 6828.11 15099.2 6854.96 15099.2 6869.61C15099.2 6897.28 15084.6 6939.6 15055.3 6996.56C15027.6 7053.53 14998.3 7119.45 14967.4 7194.32C14938.1 7267.56 14907.1 7348.94 14874.6 7438.46C14842 7526.35 14811.1 7614.24 14781.8 7702.13C14754.2 7788.39 14730.6 7871.4 14711 7951.15C14693.1 8030.9 14684.2 8098.45 14684.2 8153.79C14684.2 8220.52 14694.7 8270.98 14715.9 8305.16C14738.7 8337.71 14766.4 8353.98 14798.9 8353.98C14823.3 8353.98 14853.4 8339.34 14889.2 8310.04C14925.1 8279.11 14962.5 8235.17 15001.6 8178.2C15040.6 8121.24 15079.7 8051.25 15118.7 7968.24C15157.8 7885.23 15192.8 7790.83 15223.7 7685.04C15254.6 7575.99 15277.4 7482.4 15292.1 7404.28C15308.4 7326.15 15319.7 7260.23 15326.3 7206.52C15334.4 7152.81 15340.9 7109.68 15345.8 7077.13C15350.7 7044.58 15358 7018.54 15367.8 6999C15379.2 6977.85 15395.4 6961.57 15416.6 6950.18C15439.4 6938.78 15471.9 6927.39 15514.2 6916C15546.8 6904.6 15577.7 6898.91 15607 6898.91C15660.7 6898.91 15687.6 6922.51 15687.6 6969.71Z" fill="white"/>
</g>
<defs>
<filter id="filter0_dddddd_103_7" x="-8834.74" y="-10184.5" width="39391.3" height="34083.7" filterUnits="userSpaceOnUse" color-interpolation-filters="sRGB">
<feFlood flood-opacity="0" result="BackgroundImageFix"/>
<feColorMatrix in="SourceAlpha" type="matrix" values="0 0 0 0 0 0 0 0 0 0 0 0 0 0 0 0 0 0 127 0" result="hardAlpha"/>
<feOffset/>
<feGaussianBlur stdDeviation="177.012"/>
<feColorMatrix type="matrix" values="0 0 0 0 1 0 0 0 0 1 0 0 0 0 1 0 0 0 1 0"/>
<feBlend mode="normal" in2="BackgroundImageFix" result="effect1_dropShadow_103_7"/>
<feColorMatrix in="SourceAlpha" type="matrix" values="0 0 0 0 0 0 0 0 0 0 0 0 0 0 0 0 0 0 127 0" result="hardAlpha"/>
<feOffset/>
<feGaussianBlur stdDeviation="354.024"/>
<feColorMatrix type="matrix" values="0 0 0 0 1 0 0 0 0 1 0 0 0 0 1 0 0 0 1 0"/>
<feBlend mode="normal" in2="effect1_dropShadow_103_7" result="effect2_dropShadow_103_7"/>
<feColorMatrix in="SourceAlpha" type="matrix" values="0 0 0 0 0 0 0 0 0 0 0 0 0 0 0 0 0 0 127 0" result="hardAlpha"/>
<feOffset/>
<feGaussianBlur stdDeviation="1239.08"/>
<feColorMatrix type="matrix" values="0 0 0 0 1 0 0 0 0 1 0 0 0 0 1 0 0 0 1 0"/>
<feBlend mode="normal" in2="effect2_dropShadow_103_7" result="effect3_dropShadow_103_7"/>
<feColorMatrix in="SourceAlpha" type="matrix" values="0 0 0 0 0 0 0 0 0 0 0 0 0 0 0 0 0 0 127 0" result="hardAlpha"/>
<feOffset/>
<feGaussianBlur stdDeviation="2478.17"/>
<feColorMatrix type="matrix" values="0 0 0 0 1 0 0 0 0 1 0 0 0 0 1 0 0 0 1 0"/>
<feBlend mode="normal" in2="effect3_dropShadow_103_7" result="effect4_dropShadow_103_7"/>
<feColorMatrix in="SourceAlpha" type="matrix" values="0 0 0 0 0 0 0 0 0 0 0 0 0 0 0 0 0 0 127 0" result="hardAlpha"/>
<feOffset/>
<feGaussianBlur stdDeviation="4248.29"/>
<feColorMatrix type="matrix" values="0 0 0 0 1 0 0 0 0 1 0 0 0 0 1 0 0 0 1 0"/>
<feBlend mode="normal" in2="effect4_dropShadow_103_7" result="effect5_dropShadow_103_7"/>
<feColorMatrix in="SourceAlpha" type="matrix" values="0 0 0 0 0 0 0 0 0 0 0 0 0 0 0 0 0 0 127 0" result="hardAlpha"/>
<feOffset/>
<feGaussianBlur stdDeviation="7434.5"/>
<feColorMatrix type="matrix" values="0 0 0 0 1 0 0 0 0 1 0 0 0 0 1 0 0 0 1 0"/>
<feBlend mode="normal" in2="effect5_dropShadow_103_7" result="effect6_dropShadow_103_7"/>
<feBlend mode="normal" in="SourceGraphic" in2="effect6_dropShadow_103_7" result="shape"/>
</filter>
</defs>
</svg>
