<svg width="140" height="137" viewBox="0 0 140 137" fill="none" xmlns="http://www.w3.org/2000/svg">
<g filter="url(#filter0_d_103_454)">
<path fill-rule="evenodd" clip-rule="evenodd" d="M83.7094 16.0046C86.8147 16.0072 89.33 18.5266 89.3274 21.6318L89.2498 115.514C89.2473 118.619 86.7279 121.135 83.6226 121.132C80.5173 121.13 78.0021 118.61 78.0046 115.505L78.0822 21.6225C78.0848 18.5173 80.6042 16.002 83.7094 16.0046Z" fill="white"/>
<path fill-rule="evenodd" clip-rule="evenodd" d="M19.7446 13.4162C22.8499 13.4188 25.3651 15.9382 25.3626 19.0435L25.285 112.926C25.2824 116.031 22.763 118.546 19.6578 118.544C16.5525 118.541 14.0372 116.022 14.0398 112.916L14.1174 19.0342C14.1199 15.9289 16.6393 13.4137 19.7446 13.4162Z" fill="white"/>
<path d="M82.9999 77.3596C82.9999 77.3596 126.88 51.4621 120.534 33.3381C114.188 15.214 63 20.6393 63 20.6393" stroke="white" stroke-width="8"/>
<path d="M19.7581 114.104C19.7581 114.104 83.1882 102.369 83.9576 67.1628C84.727 31.9565 19.758 18.8406 19.758 18.8406" stroke="white" stroke-width="8" stroke-linecap="round"/>
</g>
<defs>
<filter id="filter0_d_103_454" x="0.0397987" y="0.41626" width="139.126" height="135.716" filterUnits="userSpaceOnUse" color-interpolation-filters="sRGB">
<feFlood flood-opacity="0" result="BackgroundImageFix"/>
<feColorMatrix in="SourceAlpha" type="matrix" values="0 0 0 0 0 0 0 0 0 0 0 0 0 0 0 0 0 0 127 0" result="hardAlpha"/>
<feOffset dy="1"/>
<feGaussianBlur stdDeviation="7"/>
<feComposite in2="hardAlpha" operator="out"/>
<feColorMatrix type="matrix" values="0 0 0 0 1 0 0 0 0 1 0 0 0 0 1 0 0 0 0.55 0"/>
<feBlend mode="normal" in2="BackgroundImageFix" result="effect1_dropShadow_103_454"/>
<feBlend mode="normal" in="SourceGraphic" in2="effect1_dropShadow_103_454" result="shape"/>
</filter>
</defs>
</svg>
