<svg width="583" height="247" viewBox="0 0 583 247" fill="none" xmlns="http://www.w3.org/2000/svg">
<g filter="url(#filter0_d_1_4)">
<path d="M35.6 188.6C37.6 184.2 40 178.533 42.8 171.6C45.6 164.667 48.5333 157.2 51.6 149.2C54.6667 141.067 57.8 132.8 61 124.4C64.2 115.867 67.2 107.8 70 100.2C72.8 92.6 75.2 85.8 77.2 79.8C79.3333 73.8 80.8667 69.2 81.8 66C73.4 69.4667 66.2 74.7333 60.2 81.8C54.2 88.8667 49.6667 97.7333 46.6 108.4C43.5333 107.333 40.7333 105.467 38.2 102.8C35.6667 100 34 96.5333 33.2 92.4C34.5333 86.2667 37 80.6667 40.6 75.6C44.3333 70.5333 49 66.2 54.6 62.6C60.2 59 66.6667 56.2667 74 54.4C81.3333 52.4 89.2 51.4 97.6 51.4C108.267 51.4 118.067 53 127 56.2C135.933 59.2667 143.6 63.6 150 69.2C156.4 74.8 161.4 81.5333 165 89.4C168.6 97.2667 170.4 106 170.4 115.6C170.4 128.667 168 141.133 163.2 153C158.4 164.867 151.867 175.333 143.6 184.4C135.467 193.467 126 200.667 115.2 206C104.4 211.467 93.0667 214.2 81.2 214.2C70.2667 214.2 60.8667 212 53 207.6C45.2667 203.333 39.4667 197 35.6 188.6ZM106.2 61.4C99.5333 61.4 93.2 62.3333 87.2 64.2C93.0667 66.3333 97.9333 68.6 101.8 71C105.667 73.2667 108.333 75.0667 109.8 76.4C108.733 77.8667 107.133 80.4667 105 84.2C103 87.9333 100.6 92.4667 97.8 97.8C95.1333 103.133 92.2667 109 89.2 115.4C86.1333 121.667 83.1333 128.133 80.2 134.8C72.6 151.733 67.0667 165.067 63.6 174.8C60.2667 184.533 58.6 191.267 58.6 195C60.4667 195.667 62.7333 196.133 65.4 196.4C68.0667 196.667 70.9333 196.8 74 196.8C84.8 196.8 95 194.333 104.6 189.4C114.333 184.333 122.8 177.6 130 169.2C137.333 160.8 143.067 151.067 147.2 140C151.467 128.8 153.6 117.067 153.6 104.8C153.6 91.0667 149.333 80.4 140.8 72.8C132.267 65.2 120.733 61.4 106.2 61.4ZM175.302 195.6C175.302 190.933 175.768 185.467 176.702 179.2C177.635 172.8 178.968 166 180.702 158.8C182.568 151.6 184.702 144.067 187.102 136.2C189.635 128.333 192.435 120.467 195.502 112.6C198.168 105.533 201.235 98.4 204.702 91.2C208.302 84 212.168 76.9333 216.302 70C220.435 63.0667 224.702 56.4667 229.102 50.2C233.635 43.9333 238.168 38.2 242.702 33C244.835 33 247.102 33.2667 249.502 33.8C252.035 34.3333 254.435 35.0667 256.702 36C259.102 36.8 261.235 37.8 263.102 39C265.102 40.2 266.702 41.4 267.902 42.6C257.902 52.8667 248.902 63.2667 240.902 73.8C232.902 84.2 226.568 94 221.902 103.2C219.368 108.267 217.035 113 214.902 117.4C212.902 121.8 211.035 126.2 209.302 130.6C207.568 134.867 205.968 139.2 204.502 143.6C203.168 147.867 201.902 152.4 200.702 157.2C226.302 124.533 245.302 108.2 257.702 108.2C261.168 108.2 264.902 109.333 268.902 111.6C272.902 113.867 276.435 116.933 279.502 120.8C275.368 125.333 271.102 130.8 266.702 137.2C262.302 143.6 258.235 150.067 254.502 156.6C250.902 163 247.902 169 245.502 174.6C243.235 180.067 242.102 184.133 242.102 186.8C242.102 188.133 242.302 189.067 242.702 189.6C243.102 190 243.968 190.2 245.302 190.2C247.302 190.2 248.902 189.933 250.102 189.4C251.302 188.867 252.035 188.6 252.302 188.6C252.968 189.667 253.368 190.4 253.502 190.8C253.635 191.2 253.702 191.533 253.702 191.8C253.702 192.333 252.902 193.133 251.302 194.2C249.702 195.133 247.768 196.133 245.502 197.2C243.368 198.133 241.235 199 239.102 199.8C236.968 200.6 235.368 201 234.302 201C232.968 201 231.635 200.6 230.302 199.8C228.968 199.133 227.768 198.2 226.702 197C225.768 195.8 224.968 194.467 224.302 193C223.768 191.533 223.502 190 223.502 188.4C223.502 186.4 224.035 183.467 225.102 179.6C226.302 175.6 227.902 171 229.902 165.8C231.902 160.467 234.302 154.667 237.102 148.4C239.902 142.133 242.902 135.733 246.102 129.2C246.102 128.667 245.835 128.4 245.302 128.4C244.902 128.4 243.835 128.933 242.102 130C240.502 131.067 238.968 132.133 237.502 133.2C232.702 136.8 227.835 141.267 222.902 146.6C218.102 151.8 213.368 157.533 208.702 163.8C204.168 170.067 199.835 176.733 195.702 183.8C191.702 190.733 188.235 197.733 185.302 204.8C184.902 205.733 184.302 206.6 183.502 207.4C182.702 208.2 182.035 208.6 181.502 208.6C181.102 208.6 180.502 208.133 179.702 207.2C179.035 206.267 178.368 205.067 177.702 203.6C177.168 202.267 176.635 200.867 176.102 199.4C175.568 197.933 175.302 196.667 175.302 195.6ZM274.022 195C274.689 191.133 275.822 186.067 277.422 179.8C279.155 173.4 281.155 166.667 283.422 159.6C285.689 152.4 288.089 145.2 290.622 138C293.155 130.8 295.622 124.333 298.022 118.6C299.755 114.467 301.289 111.267 302.622 109C303.955 106.6 305.422 104.6 307.022 103C308.889 103.267 310.822 103.733 312.822 104.4C314.822 105.067 316.755 105.867 318.622 106.8C320.489 107.733 322.155 108.733 323.622 109.8C325.089 110.733 326.222 111.667 327.022 112.6C323.422 116.867 320.222 121.733 317.422 127.2C314.755 132.667 312.022 139.667 309.222 148.2C316.422 141.8 322.755 135.667 328.222 129.8C333.822 123.933 339.022 117.4 343.822 110.2C344.622 109.533 346.022 109.2 348.022 109.2C349.889 109.2 351.689 109.533 353.422 110.2C355.155 110.733 356.355 111.533 357.022 112.6C354.622 119 353.422 125.333 353.422 131.6C353.422 137.467 354.289 141.867 356.022 144.8C355.889 145.6 354.955 147.133 353.222 149.4C351.622 151.667 349.822 153.8 347.822 155.8C344.222 153.933 341.022 151.4 338.222 148.2C335.422 144.867 333.355 141.267 332.022 137.4C325.755 141.8 320.422 146.133 316.022 150.4C311.622 154.533 307.822 159.2 304.622 164.4C301.555 169.467 298.889 175.333 296.622 182C294.489 188.667 292.422 196.6 290.422 205.8C289.222 205.667 287.755 205.2 286.022 204.4C284.422 203.733 282.755 202.867 281.022 201.8C279.422 200.733 277.955 199.6 276.622 198.4C275.289 197.2 274.422 196.067 274.022 195ZM413.886 194.6C411.353 192.467 409.619 189.8 408.686 186.6C407.886 183.4 407.486 180.667 407.486 178.4C407.486 175.6 407.819 173.2 408.486 171.2C407.953 171.2 406.753 172.267 404.886 174.4C403.019 176.533 400.953 179.067 398.686 182C396.553 184.933 394.419 187.8 392.286 190.6C390.153 193.4 388.553 195.467 387.486 196.8C385.753 198.667 384.086 200.133 382.486 201.2C381.019 202.267 379.819 202.867 378.886 203C376.753 202.867 374.486 202.4 372.086 201.6C369.819 200.933 367.619 199.933 365.486 198.6C363.486 197.267 361.686 195.667 360.086 193.8C358.619 191.933 357.619 189.8 357.086 187.4C357.086 183.667 357.153 180.6 357.286 178.2C357.553 175.8 358.019 173.2 358.686 170.4C359.886 165.333 361.619 159.6 363.886 153.2C366.286 146.8 369.019 140.533 372.086 134.4C375.153 128.133 378.553 122.333 382.286 117C386.153 111.533 390.219 107.267 394.486 104.2C395.686 104.2 397.086 104.333 398.686 104.6C400.286 104.733 401.886 105.067 403.486 105.6C405.219 106.133 406.819 106.8 408.286 107.6C409.886 108.267 411.219 109.2 412.286 110.4C411.086 111.733 408.019 116.2 403.086 123.8C398.286 131.4 392.886 142.333 386.886 156.6C386.219 158.067 385.419 160.2 384.486 163C383.553 165.8 382.619 168.733 381.686 171.8C380.753 174.867 379.953 177.867 379.286 180.8C378.753 183.733 378.486 186.067 378.486 187.8C378.486 188.867 378.619 189.667 378.886 190.2C379.286 190.733 379.619 191.133 379.886 191.4C381.886 190.6 384.419 188.4 387.486 184.8C390.553 181.2 394.819 175.667 400.286 168.2C401.619 166.333 403.153 164.2 404.886 161.8C406.753 159.4 408.619 156.867 410.486 154.2C412.353 151.4 414.086 148.533 415.686 145.6C417.419 142.667 418.819 139.733 419.886 136.8C420.419 135.2 421.086 133.333 421.886 131.2C422.819 128.933 423.886 126.6 425.086 124.2C426.419 121.8 427.886 119.4 429.486 117C431.219 114.467 433.219 112.133 435.486 110C437.219 110 439.086 110.2 441.086 110.6C443.086 111 444.953 111.533 446.686 112.2C448.553 112.733 450.153 113.4 451.486 114.2C452.819 114.867 453.819 115.6 454.486 116.4C452.086 122.267 449.419 128.067 446.486 133.8C443.553 139.533 440.819 145.2 438.286 150.8C435.753 156.267 433.619 161.733 431.886 167.2C430.153 172.667 429.286 178 429.286 183.2C429.286 186 429.486 188.467 429.886 190.6C430.419 192.6 430.953 194.333 431.486 195.8C432.019 197.133 432.486 198.267 432.886 199.2C433.419 200.133 433.686 200.933 433.686 201.6C433.686 201.733 433.553 201.933 433.286 202.2C433.153 202.333 433.019 202.4 432.886 202.4C431.953 202.4 430.753 202.2 429.286 201.8C427.819 201.4 426.153 200.8 424.286 200C422.553 199.333 420.753 198.533 418.886 197.6C417.153 196.667 415.486 195.667 413.886 194.6ZM468.338 128.2C468.338 125.8 468.471 123.533 468.738 121.4C469.138 119.267 469.871 117.467 470.938 116C472.004 114.4 473.471 113.2 475.338 112.4C477.204 111.467 479.671 111 482.738 111C484.604 111 486.671 111.2 488.938 111.6C491.338 112 493.071 112.733 494.138 113.8C493.604 116.067 493.138 118.067 492.738 119.8C492.471 121.533 492.204 123.467 491.938 125.6C491.804 127.6 491.671 130.067 491.538 133C491.404 135.8 491.271 139.467 491.138 144C490.871 153.067 490.404 161.2 489.738 168.4C489.204 175.467 487.871 182.533 485.738 189.6C485.738 190.133 485.938 190.4 486.338 190.4C488.338 188.933 490.604 186.8 493.138 184C495.671 181.2 498.338 178.067 501.138 174.6C503.938 171 506.738 167.2 509.538 163.2C512.338 159.2 514.938 155.267 517.338 151.4C520.538 145.8 524.071 138.8 527.938 130.4C531.804 122 535.004 113 537.538 103.4C538.338 103.4 539.338 103.6 540.538 104C541.871 104.267 543.138 104.667 544.338 105.2C545.671 105.6 546.804 106.067 547.738 106.6C548.804 107.133 549.538 107.6 549.938 108C549.671 113.733 548.271 119.6 545.738 125.6C543.338 131.6 540.404 137.4 536.938 143C533.471 148.6 529.804 153.867 525.938 158.8C522.071 163.733 518.538 168 515.338 171.6C508.938 179.067 502.471 185.733 495.938 191.6C489.538 197.467 481.871 203.133 472.938 208.6C469.471 207.267 466.738 205.467 464.738 203.2C462.738 201.067 461.738 198.8 461.738 196.4C461.738 194.8 462.071 193 462.738 191C463.538 188.867 464.404 186.2 465.338 183C466.271 179.667 467.071 175.533 467.738 170.6C468.538 165.667 468.938 159.4 468.938 151.8C468.938 147.4 468.804 143 468.538 138.6C468.404 134.067 468.338 130.6 468.338 128.2Z" fill="white"/>
</g>
<defs>
<filter id="filter0_d_1_4" x="0.680012" y="0.48" width="581.777" height="246.24" filterUnits="userSpaceOnUse" color-interpolation-filters="sRGB">
<feFlood flood-opacity="0" result="BackgroundImageFix"/>
<feColorMatrix in="SourceAlpha" type="matrix" values="0 0 0 0 0 0 0 0 0 0 0 0 0 0 0 0 0 0 127 0" result="hardAlpha"/>
<feOffset/>
<feGaussianBlur stdDeviation="16.26"/>
<feColorMatrix type="matrix" values="0 0 0 0 1 0 0 0 0 1 0 0 0 0 1 0 0 0 1 0"/>
<feBlend mode="normal" in2="BackgroundImageFix" result="effect1_dropShadow_1_4"/>
<feBlend mode="normal" in="SourceGraphic" in2="effect1_dropShadow_1_4" result="shape"/>
</filter>
</defs>
</svg>
